<?xml version="1.0" encoding="UTF-8"?>
<!DOCTYPE svg PUBLIC "-//W3C//DTD SVG 1.1//EN" "http://www.w3.org/Graphics/SVG/1.1/DTD/svg11.dtd">
<svg xmlns="http://www.w3.org/2000/svg" version="1.1" width="500px" height="500px" style="shape-rendering:geometricPrecision; text-rendering:geometricPrecision; image-rendering:optimizeQuality; fill-rule:evenodd; clip-rule:evenodd" xmlns:xlink="http://www.w3.org/1999/xlink">
<g><path style="opacity:0.977" fill="#fefefe" d="M 245.5,9.5 C 272.856,45.3691 299.689,81.7024 326,118.5C 326.398,133.718 324.731,148.718 321,163.5C 320.088,167.77 317.588,169.604 313.5,169C 305.029,160.898 299.529,151.065 297,139.5C 297.726,148.395 299.393,157.062 302,165.5C 293.232,163.844 284.399,162.678 275.5,162C 287.855,164.848 299.188,169.848 309.5,177C 317.805,191.448 324.639,206.615 330,222.5C 335.8,242.898 328.3,255.231 307.5,259.5C 302.523,260.832 297.523,261.666 292.5,262C 287.917,258.088 284.083,253.588 281,248.5C 278.928,238.928 277.428,229.261 276.5,219.5C 276.418,216.243 277.418,213.409 279.5,211C 276.461,211.37 274.627,213.204 274,216.5C 273.497,221.19 272.83,225.857 272,230.5C 269.578,233.412 268.411,236.745 268.5,240.5C 269.111,247.158 269.611,253.825 270,260.5C 271.833,263.5 273.667,266.5 275.5,269.5C 273.137,275.197 269.137,279.197 263.5,281.5C 254.823,280.403 246.156,280.236 237.5,281C 232.589,277.922 228.922,273.756 226.5,268.5C 228.671,265.495 230.171,262.161 231,258.5C 231.667,251.167 231.667,243.833 231,236.5C 226.335,229.643 224.002,221.977 224,213.5C 222.887,211.671 221.387,210.837 219.5,211C 220.126,211.75 220.626,212.584 221,213.5C 221.761,226.196 221.428,238.862 220,251.5C 219.242,255.922 216.742,258.755 212.5,260C 194.494,259.582 179.328,252.749 167,239.5C 164.823,235.969 163.656,232.136 163.5,228C 166.891,209.826 173.058,192.659 182,176.5C 183.873,174.291 186.04,172.458 188.5,171C 200.334,167.366 212.334,164.366 224.5,162C 212.749,161.003 201.082,161.503 189.5,163.5C 188.833,163.167 188.167,162.833 187.5,162.5C 192.478,155.247 194.978,147.247 195,138.5C 192.436,150.042 186.936,159.876 178.5,168C 175.883,167.74 174.05,166.24 173,163.5C 168.398,149.77 165.398,135.77 164,121.5C 191.421,84.3144 218.587,46.9811 245.5,9.5 Z"/></g>
<g><path style="opacity:0.958" fill="#fefefe" d="M 153.5,73.5 C 154.043,73.56 154.376,73.8933 154.5,74.5C 152.759,80.0388 151.592,85.7054 151,91.5C 150.174,102.2 149.174,112.866 148,123.5C 141.76,134.308 135.76,145.308 130,156.5C 127.855,166.234 128.189,175.901 131,185.5C 136.889,198.28 143.556,210.614 151,222.5C 152.058,231.524 154.392,240.191 158,248.5C 161.167,251.667 164.333,254.833 167.5,258C 182.937,264.885 197.937,272.552 212.5,281C 216,285.167 219.5,289.333 223,293.5C 223.667,294.833 223.667,296.167 223,297.5C 220.622,299.709 218.455,302.042 216.5,304.5C 208.207,300.902 199.874,297.402 191.5,294C 188.667,291.167 185.833,288.333 183,285.5C 187.418,301.915 198.085,311.248 215,313.5C 213.453,328.18 219.12,339.18 232,346.5C 235.064,354.199 237.064,362.199 238,370.5C 239.167,375.667 242.333,378.833 247.5,380C 253.694,381.711 258.86,380.211 263,375.5C 265.533,366.646 267.533,357.646 269,348.5C 271.827,344.251 275.494,340.918 280,338.5C 286.477,332.211 289.644,324.544 289.5,315.5C 301.154,314.59 310.654,309.59 318,300.5C 321.515,295.796 324.181,290.796 326,285.5C 314.645,294.512 301.979,301.179 288,305.5C 284.899,303.326 282.232,300.659 280,297.5C 279.48,295.711 279.813,294.044 281,292.5C 284.833,288.667 288.667,284.833 292.5,281C 303.332,276.722 313.999,272.056 324.5,267C 329.286,263.882 333.786,260.382 338,256.5C 340.442,253.952 342.108,250.952 343,247.5C 342.967,239.675 343.967,232.009 346,224.5C 355.031,212.773 361.698,199.773 366,185.5C 369.049,173.462 367.382,162.129 361,151.5C 354.153,143.647 349.486,134.647 347,124.5C 347.404,111.513 347.404,98.5128 347,85.5C 346.089,81.8 345.422,78.1334 345,74.5C 348.642,81.0872 351.309,88.0872 353,95.5C 354,106.5 355,117.5 356,128.5C 360.598,139.192 364.765,150.025 368.5,161C 394.506,161.167 420.506,161.667 446.5,162.5C 405.089,218.322 363.922,274.322 323,330.5C 299.08,366.676 274.913,402.676 250.5,438.5C 187.745,344.247 122.078,252.08 53.5,162C 76.8405,161.833 100.174,161.333 123.5,160.5C 135.102,132.026 145.102,103.026 153.5,73.5 Z"/></g>
<g><path style="opacity:0.938" fill="#fefefe" d="M 330.5,125.5 C 339.224,137.258 347.724,149.258 356,161.5C 362.283,180.654 357.283,196.32 341,208.5C 337.368,203.866 333.368,199.533 329,195.5C 325.776,191.719 323.61,187.386 322.5,182.5C 324.634,173.264 327.468,164.264 331,155.5C 331.63,145.484 331.463,135.484 330.5,125.5 Z"/></g>
<g><path style="opacity:0.935" fill="#fefefe" d="M 158.5,129.5 C 159.5,129.5 160.5,129.5 161.5,129.5C 159.071,147.357 162.405,164.024 171.5,179.5C 167.746,189.4 161.912,197.733 154,204.5C 138.494,191.814 133.494,175.814 139,156.5C 145.509,147.471 152.009,138.471 158.5,129.5 Z"/></g>
<g><path style="opacity:0.963" fill="#fefefe" d="M 240.5,283.5 C 247.508,283.334 254.508,283.5 261.5,284C 268.373,291.205 274.873,298.705 281,306.5C 282.11,312.426 281.444,318.092 279,323.5C 274.815,326.595 270.815,329.928 267,333.5C 264.021,345.325 262.021,357.325 261,369.5C 256.148,376.4 250.314,377.233 243.5,372C 242.54,370.581 241.707,369.081 241,367.5C 239.958,357.452 238.625,347.452 237,337.5C 234.047,332.214 230.047,327.88 225,324.5C 221.699,318.047 221.033,311.381 223,304.5C 229.422,297.919 235.255,290.919 240.5,283.5 Z"/></g>
</svg>
