<svg version="1.0" xmlns="http://www.w3.org/2000/svg"
 width="1024.000000pt" height="1024.000000pt" viewBox="0 0 1024.000000 1024.000000"
 preserveAspectRatio="xMidYMid meet">

<g transform="translate(0.000000,1024.000000) scale(0.100000,-0.100000)"
fill="#000000" stroke="none">
<path d="M0 5120 l0 -5120 5120 0 5120 0 0 5120 0 5120 -5120 0 -5120 0 0
-5120z m5425 4750 c245 -18 385 -38 595 -84 228 -50 435 -108 561 -158 l84
-33 3 -77 c2 -43 0 -78 -2 -78 -3 0 -54 18 -113 41 -241 91 -652 189 -953 226
-113 14 -218 18 -480 18 -367 -1 -487 -12 -800 -75 -210 -42 -572 -147 -712
-205 -16 -6 -18 0 -18 69 0 90 -11 82 195 149 533 174 1106 246 1640 207z
m1684 -550 c69 -140 162 -328 205 -418 43 -89 80 -161 83 -159 2 3 -21 82 -52
177 -30 95 -53 175 -51 177 3 4 171 -258 194 -303 9 -16 4 -33 -24 -88 l-34
-68 0 -398 c0 -320 -3 -400 -13 -409 -8 -6 -17 -8 -20 -4 -4 3 -7 177 -7 385
l0 378 -69 138 c-200 400 -338 723 -436 1017 -13 39 98 -172 224 -425z m-3763
358 c-19 -60 -82 -217 -155 -388 -81 -187 -343 -714 -357 -718 -7 -1 -13 16
-16 42 -3 26 -20 68 -41 102 l-35 58 52 80 c116 180 151 228 154 214 1 -8 -20
-76 -48 -152 -27 -76 -50 -147 -49 -159 0 -12 96 172 214 410 188 382 278 553
290 553 2 0 -2 -19 -9 -42z m4526 -398 c69 -129 163 -307 208 -395 l83 -160
-78 -148 c-77 -145 -144 -240 -145 -205 0 17 31 100 94 252 l38 89 -25 56
c-14 31 -58 128 -97 216 -39 88 -96 221 -127 295 -30 74 -68 164 -83 200 -77
181 -46 132 132 -200z m-2267 271 c252 -34 485 -86 746 -165 124 -38 309 -110
318 -125 3 -5 4 -39 3 -75 l-4 -66 -36 17 c-106 46 -371 130 -566 178 -668
164 -1221 167 -1846 10 -183 -46 -350 -97 -502 -154 l-128 -48 0 72 0 71 38
18 c131 63 521 178 765 225 130 25 294 49 452 65 22 2 168 2 325 1 218 -3 320
-8 435 -24z m-3139 -172 c-30 -74 -89 -211 -131 -304 -42 -94 -95 -211 -116
-261 l-40 -92 44 -98 c59 -133 97 -229 97 -248 0 -24 -76 52 -103 104 -13 25
-47 91 -76 147 l-52 101 51 102 c28 56 102 194 164 308 62 114 135 249 162
300 26 52 50 90 52 84 1 -5 -22 -69 -52 -143z m378 -81 c-14 -23 -242 -322
-269 -353 -26 -29 -26 -30 -21 -5 3 14 13 65 22 113 16 85 18 89 53 107 20 10
77 48 126 84 97 70 100 72 89 54z m4767 -135 c46 -27 47 -28 64 -107 10 -45
24 -93 31 -108 35 -68 4 -41 -96 82 -96 120 -200 257 -200 265 0 3 35 -19 78
-50 42 -30 98 -67 123 -82z m-2368 -153 c210 -65 345 -295 293 -499 -63 -246
-298 -384 -534 -312 -128 39 -222 128 -274 260 -31 79 -31 213 1 293 84 215
301 324 514 258z m-1419 -839 c-31 -36 -59 -67 -63 -69 -3 -1 -4 192 -1 429
l5 431 55 28 55 28 3 -390 2 -390 -56 -67z m2611 818 l55 -31 0 -434 0 -435
-60 72 -60 71 0 228 c0 125 -3 302 -7 393 -4 125 -3 167 6 167 6 0 36 -14 66
-31z m2277 -735 c597 -694 966 -1514 1127 -2503 34 -204 44 -398 38 -749 -6
-432 -30 -618 -132 -1037 -190 -777 -570 -1476 -1133 -2083 -272 -293 -658
-606 -1008 -818 -682 -412 -1465 -653 -2263 -695 -965 -51 -2012 243 -2856
804 -417 276 -841 671 -1147 1067 -156 203 -364 538 -489 790 -250 502 -427
1149 -469 1705 -22 300 -9 747 30 990 109 692 310 1275 630 1825 77 132 209
331 258 390 l29 35 47 -38 c25 -21 46 -43 46 -48 0 -5 -20 -36 -45 -70 -275
-374 -557 -974 -699 -1489 -56 -205 -135 -629 -155 -835 -27 -273 -23 -685 10
-940 29 -224 128 -641 221 -923 150 -461 431 -968 774 -1402 144 -181 492
-527 699 -693 350 -282 658 -466 1081 -647 869 -372 1816 -480 2671 -304 204
42 551 138 743 206 86 31 123 46 375 158 555 247 1157 706 1565 1195 369 441
605 845 798 1360 135 364 235 790 269 1150 19 207 22 655 5 845 -51 563 -236
1200 -504 1735 -165 329 -382 648 -667 980 l-120 140 -1 99 0 99 86 -92 c47
-50 131 -143 186 -207z m-6990 -2 c-70 -78 -171 -195 -190 -222 -1 -2 -24 17
-49 42 l-46 47 43 58 c48 63 182 215 269 306 l56 58 3 -96 3 -97 -89 -96z
m455 56 c32 -46 67 -95 76 -110 15 -25 17 -69 17 -447 0 -332 3 -422 13 -428
7 -4 76 -77 152 -161 197 -216 234 -260 205 -240 -14 10 -65 43 -115 75 -130
82 -326 219 -374 260 l-41 35 0 549 c0 302 2 549 4 549 2 0 30 -37 63 -82z
m1459 0 l-4 -82 -131 -137 -131 -137 0 -280 c0 -154 -3 -287 -6 -296 -5 -12
-22 4 -65 59 l-59 74 0 243 0 243 191 198 c105 108 195 197 200 197 4 0 7 -37
5 -82z m3195 -129 l179 -188 0 -241 0 -241 -57 -74 -58 -75 -8 303 -8 302
-129 130 -130 130 0 84 c0 76 1 82 16 70 9 -7 97 -98 195 -200z m1282 -914
c-32 -29 -412 -283 -493 -330 -20 -12 96 119 248 280 l122 130 0 418 0 418 53
72 c29 40 62 87 73 105 19 33 19 33 22 -518 l2 -551 -27 -24z m-3626 893 l191
-193 6 -759 c3 -463 2 -756 -4 -750 -5 5 -34 40 -64 79 l-56 69 0 653 0 652
-140 143 -139 143 -1 78 c0 42 3 77 8 77 4 0 93 -87 199 -192z m1476 100 l-5
-83 -134 -131 -134 -132 0 -663 0 -664 -61 -62 c-34 -35 -63 -63 -65 -63 -2 0
-4 335 -4 745 l0 745 198 195 c108 107 200 194 204 195 3 0 4 -37 1 -82z
m-4153 -295 l-1 -228 -25 30 c-14 17 -56 69 -93 116 l-68 86 91 111 c50 61 92
111 94 111 1 1 2 -101 2 -226z m6696 152 c33 -38 74 -89 93 -113 l33 -42 -57
-70 c-31 -38 -74 -89 -96 -112 l-38 -43 -1 229 c0 126 2 227 4 225 2 -2 30
-35 62 -74z m-4402 -105 l56 -70 0 -614 0 -615 300 -298 c214 -213 300 -305
300 -321 0 -12 -4 -22 -8 -22 -21 0 -169 135 -393 359 l-247 246 -6 200 c-6
197 -21 321 -50 400 -12 33 -15 111 -16 423 0 210 2 382 4 382 2 0 29 -32 60
-70z m2059 -756 c-26 -41 -53 -80 -60 -86 -11 -8 -13 62 -13 381 l0 392 58 72
57 72 3 -379 2 -378 -47 -74z m-3553 438 c0 -38 2 -165 5 -283 l6 -214 -25 47
c-14 26 -37 63 -51 84 -24 36 -25 42 -25 206 l0 168 33 30 c49 45 57 40 57
-38z m5134 -152 l6 -135 -52 -85 -53 -85 -3 250 c-1 137 0 256 3 264 4 11 17
3 49 -30 l44 -44 6 -135z m-6249 -17 c-8 -125 -8 -128 -48 -192 -67 -110 -202
-378 -266 -528 -156 -366 -282 -846 -330 -1260 -19 -154 -30 -460 -24 -610 l6
-141 -62 -31 c-44 -23 -63 -28 -65 -19 -12 37 -16 369 -6 547 31 595 144 1078
380 1626 54 127 192 397 245 480 18 28 52 82 76 120 43 69 91 135 98 135 1 0
0 -57 -4 -127z m7376 -34 c185 -301 372 -709 477 -1044 101 -318 125 -420 166
-690 39 -264 49 -445 43 -765 -8 -379 -31 -582 -102 -881 -130 -545 -321 -996
-612 -1438 -191 -291 -351 -487 -574 -706 -211 -207 -312 -289 -627 -512 -340
-241 -797 -463 -1211 -589 -248 -75 -522 -133 -861 -180 -151 -21 -534 -29
-720 -15 -459 35 -918 140 -1344 308 -118 46 -433 198 -561 270 -340 191 -728
485 -995 753 -345 345 -671 833 -887 1324 -151 343 -281 775 -328 1083 -22
151 -22 151 28 172 82 35 87 35 87 6 0 -45 49 -299 91 -467 186 -754 597
-1504 1105 -2012 429 -430 875 -728 1451 -969 282 -119 556 -199 898 -261 312
-58 438 -70 730 -69 269 1 400 11 659 54 468 77 843 198 1281 414 220 109 456
256 690 431 296 222 586 509 797 789 369 491 601 982 757 1603 144 570 154
1317 25 1886 -92 410 -277 898 -477 1263 l-54 98 -6 134 c-6 151 -13 150 74
10z m-7084 -89 c55 -69 140 -170 188 -225 48 -55 132 -155 186 -222 54 -67
103 -124 109 -128 5 -3 10 -10 10 -15 0 -5 -35 13 -77 41 -43 28 -116 72 -162
97 -68 38 -99 64 -165 138 l-81 91 -3 -348 -2 -348 66 -83 c37 -46 73 -92 80
-103 10 -15 14 -70 14 -203 1 -100 5 -193 9 -207 5 -21 45 -47 221 -142 600
-322 861 -464 1017 -551 l173 -97 0 -522 c0 -288 -2 -523 -5 -523 -3 0 -67 53
-143 118 -75 64 -163 137 -194 162 l-58 45 0 57 0 58 -111 0 -111 0 4 -55 5
-54 -42 -6 c-23 -4 -54 -5 -71 -3 l-29 3 -3 358 -2 358 52 -30 c31 -18 56 -40
60 -53 3 -13 6 -107 7 -210 l1 -188 123 0 122 0 93 -107 c51 -60 112 -130 137
-158 l46 -50 -7 360 c-6 314 -9 361 -23 370 -9 6 -106 59 -216 118 -110 60
-306 166 -435 236 -129 71 -280 152 -335 181 -55 29 -169 89 -252 134 l-153
81 0 227 0 227 -85 107 -85 106 0 556 c0 476 2 554 14 542 8 -8 59 -71 113
-140z m6812 -556 l1 -401 -84 -104 -84 -104 -7 -230 -7 -230 -97 -52 c-53 -28
-197 -104 -321 -168 -238 -124 -767 -406 -910 -485 l-85 -47 -3 -358 c-1 -217
1 -355 7 -353 5 1 66 68 135 148 l126 145 128 5 127 5 -4 206 -3 206 56 31
c31 18 58 32 61 32 3 0 5 -162 5 -360 l0 -360 -75 0 -75 0 0 60 0 60 -105 0
-105 0 0 -58 0 -58 -77 -59 c-69 -53 -117 -94 -280 -238 l-43 -39 0 531 0 530
158 89 c203 115 562 310 822 447 275 144 423 227 432 239 4 6 8 99 8 207 l0
195 85 106 85 107 0 353 0 353 -84 -91 c-49 -52 -113 -109 -153 -134 -37 -24
-106 -69 -153 -99 -116 -76 -118 -77 -94 -50 11 13 43 51 71 84 321 384 407
490 463 563 l65 86 6 -155 c4 -84 7 -334 8 -555z m-4781 241 c90 -105 90 -106
96 -173 4 -37 9 -91 13 -121 3 -34 2 -52 -4 -48 -6 4 -53 60 -106 126 l-97
119 0 101 c0 56 2 101 4 101 3 0 45 -47 94 -105z m2718 8 c-6 -87 -10 -103
-37 -142 -41 -58 -161 -202 -166 -197 -2 2 -1 57 3 123 l7 120 89 97 c49 53
94 96 100 96 7 0 9 -32 4 -97z m735 -140 c-5 -10 -27 -41 -49 -70 -32 -43 -68
-70 -198 -149 -499 -304 -903 -534 -939 -534 -8 0 -15 6 -15 13 0 17 27 41
110 99 61 42 117 77 500 309 126 76 590 347 598 348 1 1 -2 -7 -7 -16z m-3944
-189 c260 -151 628 -376 746 -457 83 -56 107 -80 94 -93 -7 -7 -279 130 -435
220 -72 41 -243 143 -379 226 -242 147 -290 184 -355 274 l-21 29 69 -39 c38
-21 164 -93 281 -160z m-1948 -46 c20 -17 62 -55 94 -85 l58 -53 -20 -46 c-14
-31 -25 -43 -33 -38 -18 10 -171 116 -182 125 -8 7 31 129 41 129 3 0 22 -14
42 -32z m7559 -44 l27 -56 -21 -16 c-11 -10 -42 -36 -70 -60 l-49 -42 38 -70
c20 -38 37 -72 37 -75 0 -6 -77 -55 -88 -55 -4 0 -29 44 -56 98 -48 97 -48 98
-33 134 15 36 161 198 178 198 5 0 22 -25 37 -56z m-6719 -159 c89 -108 91
-111 91 -163 0 -57 17 -275 26 -329 5 -32 14 -38 333 -198 l328 -165 7 -71 c3
-40 5 -73 4 -74 -2 -2 -37 16 -78 40 -41 24 -210 118 -375 211 -165 92 -306
173 -313 179 -7 7 -17 54 -23 110 -14 136 -30 210 -95 425 -30 102 -57 194
-60 205 -5 22 10 5 155 -170z m5966 153 c-4 -18 -31 -108 -61 -199 -69 -217
-84 -283 -92 -407 l-7 -104 -150 -87 c-82 -48 -249 -143 -370 -211 -121 -68
-230 -130 -242 -138 -23 -14 -23 -14 -23 46 0 33 3 67 6 76 6 16 80 56 449
241 l220 111 12 134 c6 74 12 169 12 210 1 75 1 76 41 115 23 22 78 86 123
143 45 56 83 102 85 102 2 0 0 -15 -3 -32z m-2075 14 c0 -14 -129 -158 -272
-302 -210 -212 -327 -315 -341 -301 -11 11 -1 24 192 229 163 173 382 379 404
379 9 0 17 -2 17 -5z m1720 -178 c-77 -77 -288 -249 -296 -241 -2 2 15 47 38
100 29 68 47 98 62 103 33 10 229 96 251 111 39 26 28 11 -55 -73z m-5270 -23
c9 -5 31 -12 49 -16 30 -6 37 -16 71 -89 21 -44 41 -92 45 -104 6 -21 5 -22
-12 -13 -55 32 -235 186 -292 250 l-66 74 95 -47 c52 -26 102 -50 110 -55z
m4820 -30 c0 -5 -33 -40 -74 -79 -54 -51 -124 -100 -257 -180 -289 -172 -883
-512 -896 -512 -2 0 -3 23 -1 51 l3 51 225 125 c344 191 648 361 825 461 166
93 175 98 175 83z m-4342 -87 c86 -48 202 -113 257 -144 181 -104 288 -163
542 -300 l251 -135 5 -40 c2 -22 1 -44 -3 -48 -4 -5 -27 3 -50 18 -23 14 -117
66 -208 115 -287 152 -706 397 -811 474 -98 72 -172 146 -146 146 3 0 76 -39
163 -86z m2106 51 c14 -21 16 -69 16 -370 l0 -345 -26 -10 c-14 -6 -30 -10
-35 -10 -13 0 -12 716 1 741 14 25 24 24 44 -6z m-134 -376 l0 -281 -40 32
-40 32 0 211 0 211 37 38 c20 21 38 38 40 38 2 0 3 -126 3 -281z m300 -7 c0
-231 2 -221 -52 -253 -17 -9 -18 6 -18 263 l0 272 35 -34 35 -34 0 -214z
m-3998 151 c38 -17 57 -31 54 -39 -57 -148 -126 -411 -126 -479 0 -29 -7 -29
-75 -7 l-50 17 3 45 c6 82 95 444 118 482 7 11 11 11 76 -19z m7721 -60 c72
-239 115 -430 101 -442 -10 -8 -85 -31 -102 -31 -6 0 -16 26 -23 58 -25 121
-60 251 -93 350 l-35 103 52 24 c29 13 57 24 63 24 6 1 23 -38 37 -86z m-285
-235 c53 -175 65 -236 58 -315 -5 -62 -3 -78 14 -105 56 -93 24 -210 -71 -258
-110 -57 -253 16 -266 134 -8 66 4 112 39 152 40 45 77 64 128 64 36 0 40 2
40 26 0 40 -37 212 -60 278 -11 33 -20 65 -20 71 0 12 73 53 96 55 6 0 25 -46
42 -102z m-7112 39 c9 -9 9 -27 1 -70 l-12 -59 -70 7 c-38 4 -72 9 -74 10 -3
4 21 85 41 137 l10 27 46 -20 c26 -11 52 -26 58 -32z m2751 -69 l53 -52 0 -76
0 -76 55 -44 c56 -47 105 -98 394 -410 l171 -185 1 -232 c1 -128 2 -239 3
-245 1 -9 23 -14 63 -16 l63 -3 -7 240 -6 239 49 55 c255 282 456 496 514 548
l70 63 0 76 0 75 55 48 55 48 0 -149 0 -150 -147 -138 c-82 -76 -219 -208
-305 -293 l-158 -155 0 -313 0 -313 -187 2 -188 3 -3 311 -2 310 -178 175
c-97 96 -234 227 -304 292 l-128 119 0 149 c0 82 3 149 7 149 4 0 31 -23 60
-52z m2573 -174 c0 -3 -28 -35 -62 -70 l-61 -64 -76 1 -76 0 135 69 c151 77
140 72 140 64z m-3515 -69 l120 -65 -70 0 -71 0 -64 65 c-35 36 -58 65 -50 65
8 0 69 -30 135 -65z m-2291 -127 c57 -11 58 -12 52 -40 -18 -89 -28 -332 -22
-518 4 -113 8 -214 9 -225 2 -17 -7 -21 -61 -29 -34 -5 -65 -6 -69 -3 -9 10
-9 577 1 710 5 82 12 117 20 117 7 0 39 -5 70 -12z m8020 -30 c23 -162 34
-525 19 -705 l-6 -83 -32 0 c-18 0 -46 3 -62 6 l-29 6 4 242 c4 215 -7 464
-24 532 -5 19 1 23 43 32 80 16 80 16 87 -30z m-4232 -95 c56 -54 121 -114
142 -135 l40 -36 139 134 c77 74 143 134 148 134 19 0 7 -37 -29 -87 -21 -29
-87 -108 -147 -177 l-109 -124 -76 81 c-106 113 -158 174 -186 219 -31 48 -46
88 -35 88 5 0 56 -44 113 -97z m-2580 -79 l53 -26 0 -231 c1 -251 10 -345 56
-557 108 -501 392 -1011 807 -1453 106 -114 235 -239 342 -331 60 -52 332
-326 324 -326 -16 0 -233 118 -301 163 -197 132 -433 352 -598 557 -33 41 -65
81 -72 88 -12 12 -96 127 -180 247 -140 198 -314 545 -379 757 -36 115 -82
312 -90 378 -3 30 -8 58 -10 61 -2 3 -6 35 -9 70 -3 35 -8 84 -11 109 -13 102
-4 520 12 520 2 0 27 -12 56 -26z m5593 -101 c10 -170 0 -454 -20 -583 -41
-266 -128 -571 -209 -738 -20 -40 -36 -74 -36 -76 0 -9 -123 -221 -175 -301
-130 -201 -343 -471 -480 -609 -80 -81 -304 -272 -380 -325 -39 -27 -133 -82
-210 -121 l-140 -72 171 168 c93 93 253 250 355 350 267 260 433 458 580 694
296 474 422 915 418 1465 l-2 219 49 27 c27 15 54 28 60 28 8 1 14 -41 19
-126z m-6455 12 l0 -45 -65 0 -65 0 0 29 c0 55 7 61 71 61 l59 0 0 -45z m2840
-127 c90 -91 90 -92 137 -89 29 1 49 -3 54 -11 5 -7 9 -69 9 -137 l0 -124 -47
43 c-27 24 -91 85 -144 137 l-97 93 -4 90 c-2 50 -3 90 -1 90 1 0 43 -41 93
-92z m1664 -6 l-7 -92 -114 -102 c-63 -57 -128 -114 -144 -127 l-29 -24 0 132
0 131 58 0 57 0 90 90 c49 49 90 88 92 86 2 -1 0 -44 -3 -94z m-4504 -107 l0
-45 -65 0 -65 0 0 45 0 45 65 0 65 0 0 -45z m7390 0 l0 -45 -64 0 c-58 0 -64
2 -70 23 -3 12 -3 33 1 45 5 20 12 22 69 22 l64 0 0 -45z m-4138 -407 c2 -197
6 -358 9 -358 3 0 14 9 24 20 10 11 21 20 25 20 4 0 56 -52 115 -116 117 -125
117 -127 40 -140 -22 -3 -53 -16 -69 -27 l-30 -21 -97 105 -98 104 -3 351 -3
350 -57 65 c-32 35 -58 67 -58 71 0 4 26 8 58 10 55 3 59 1 99 -37 l43 -40 2
-357z m937 415 c-7 -10 -33 -40 -58 -66 l-46 -48 -1 -172 c-1 -95 -2 -255 -3
-357 l-2 -185 -98 -105 c-96 -103 -99 -105 -119 -87 -10 10 -48 24 -83 31 -34
7 -64 17 -65 22 -2 5 46 61 106 124 l109 115 30 -29 31 -30 0 358 0 358 36 44
36 44 70 0 c65 0 70 -1 57 -17z m-3925 -225 c5 -96 34 -339 49 -411 1 -5 -23
-20 -53 -33 -50 -20 -56 -21 -62 -6 -11 26 -46 268 -53 362 -3 47 -8 113 -11
148 l-6 62 65 0 64 0 7 -122z m6862 30 c-19 -264 -59 -497 -126 -729 -117
-411 -359 -865 -654 -1233 -165 -206 -457 -487 -671 -646 -368 -274 -810 -479
-1247 -579 -136 -31 -308 -61 -308 -54 0 2 30 39 66 83 54 66 71 80 102 86
221 38 637 186 862 307 328 176 574 359 832 618 342 345 586 706 767 1135 128
305 229 708 247 984 3 52 7 101 9 108 3 8 25 12 66 12 l62 0 -7 -92z m-7122
-80 c4 -40 16 -131 27 -201 11 -71 19 -131 16 -133 -8 -8 -102 -22 -109 -16
-13 15 -42 189 -62 385 l-4 37 63 0 62 0 7 -72z m7372 -15 c-6 -76 -15 -142
-42 -302 l-5 -34 -51 6 c-29 4 -55 10 -59 14 -3 5 1 60 11 123 10 63 21 152
25 198 l7 82 60 0 61 0 -7 -87z m-7646 -235 c6 -46 22 -127 36 -180 13 -53 24
-100 24 -105 0 -9 -120 -47 -126 -40 -7 6 -74 335 -74 360 0 21 7 25 58 34 31
6 60 11 63 12 4 0 12 -36 19 -81z m7913 56 c10 -3 17 -15 17 -30 0 -32 -61
-347 -69 -355 -3 -3 -34 2 -69 13 -52 16 -62 22 -57 37 15 48 56 243 62 294
l6 59 46 -7 c25 -3 54 -8 64 -11z m-3204 -120 c6 -33 11 -91 11 -130 l0 -69
-172 -170 c-232 -228 -277 -270 -283 -263 -7 7 154 196 296 350 54 58 103 118
109 133 5 14 10 77 11 138 0 117 8 120 28 11z m-1483 -277 c90 -94 248 -276
304 -352 36 -47 -59 35 -255 221 l-205 195 0 104 c0 89 2 104 15 99 9 -4 16 0
16 7 1 8 5 -26 10 -74 l7 -88 108 -112z m-2601 36 c-89 -46 -115 -55 -115 -39
0 11 49 36 120 59 42 14 39 3 -5 -20z m55 -23 c0 -12 -140 -84 -148 -75 -10
10 15 27 80 56 74 33 68 32 68 19z m20 -53 c0 -12 -118 -77 -140 -77 -28 0 -3
23 58 54 76 39 82 41 82 23z m-404 -115 c68 -275 290 -745 475 -999 l59 -81 0
-184 c0 -176 1 -186 25 -234 49 -97 148 -129 249 -80 48 23 70 44 123 115 2 3
25 -16 51 -41 69 -66 230 -201 457 -383 236 -190 247 -198 302 -213 53 -16 98
-53 124 -105 17 -32 20 -54 17 -103 -5 -76 -38 -126 -108 -161 -133 -69 -278
40 -256 191 4 25 10 46 13 46 2 0 22 -12 44 -27 24 -18 39 -36 39 -50 0 -26
44 -63 75 -63 12 0 34 9 49 21 55 43 18 129 -57 129 -22 0 -57 22 -141 87
-145 114 -292 233 -446 363 -69 58 -132 111 -141 118 -14 10 -25 7 -68 -22
-128 -86 -272 -73 -380 35 -78 79 -92 127 -99 338 l-5 175 -72 105 c-130 190
-217 353 -330 616 -46 108 -155 417 -155 439 0 9 96 50 130 55 3 0 15 -39 26
-87z m419 69 c3 -5 -25 -26 -62 -45 -109 -58 -114 -42 -6 20 32 18 59 33 60
33 1 1 4 -3 8 -8z m6891 -8 c62 -19 62 -3 4 -183 -106 -324 -266 -651 -456
-925 l-62 -90 -4 -170 c-4 -145 -8 -178 -27 -228 -73 -187 -312 -258 -463
-137 -20 17 -39 30 -42 30 -4 0 -54 -42 -114 -93 -265 -228 -578 -473 -617
-483 -29 -7 -65 -48 -65 -75 0 -29 36 -59 70 -59 19 0 48 13 78 36 26 20 123
89 216 155 93 66 220 160 282 210 l114 91 27 -20 c16 -11 36 -28 45 -39 17
-18 16 -21 -20 -54 -142 -135 -629 -479 -706 -500 -153 -41 -284 132 -209 276
26 49 55 76 113 105 84 42 361 259 648 508 l143 124 16 -22 c60 -86 162 -138
240 -124 50 9 117 75 132 129 6 22 11 118 11 215 l0 175 76 105 c196 271 397
693 483 1018 7 23 17 42 23 42 6 0 35 -8 64 -17z m-6896 -53 c-40 -31 -123
-74 -119 -61 5 14 109 79 129 80 10 0 6 -6 -10 -19z m1387 -212 c34 -29 106
-94 161 -144 54 -51 109 -95 121 -99 17 -5 21 -14 21 -48 0 -23 3 -75 7 -114
3 -40 2 -73 -3 -72 -5 0 -31 27 -59 61 -27 33 -124 138 -214 232 -90 94 -178
186 -195 204 l-30 32 65 0 c64 0 66 -1 126 -52z m3763 25 c-14 -16 -70 -75
-126 -133 -56 -58 -154 -163 -219 -235 -64 -71 -121 -131 -126 -133 -5 -2 -9
46 -9 107 0 110 0 111 28 128 58 37 210 159 278 225 l72 68 63 0 62 0 -23 -27z
m-4934 -296 c225 -408 427 -672 739 -966 370 -348 890 -633 1386 -760 85 -22
170 -42 189 -45 28 -5 47 -21 98 -82 65 -79 73 -94 45 -88 -10 2 -81 15 -158
28 -461 83 -888 265 -1310 561 -418 292 -785 699 -1043 1156 -78 137 -227 437
-221 443 2 2 31 17 63 33 l60 30 42 -94 c24 -52 73 -150 110 -216z m3094 257
c0 -4 -28 -38 -62 -77 l-63 -70 -62 69 c-35 37 -63 72 -63 76 0 4 56 8 125 8
69 0 125 -3 125 -6z m-698 -984 l118 -125 0 -179 c0 -165 -1 -177 -16 -165
-10 8 -95 105 -190 216 l-174 201 0 164 0 163 73 -75 c40 -41 125 -131 189
-200z m1408 110 l0 -159 -171 -198 c-94 -109 -180 -207 -190 -218 -19 -19 -19
-16 -19 163 l0 183 178 185 c97 102 179 190 180 195 2 5 8 9 13 9 5 0 9 -70 9
-160z m2080 -270 l0 -58 -58 -40 -57 -39 -33 44 c-18 23 -35 49 -37 55 -5 14
164 110 178 101 4 -2 7 -31 7 -63z m-5415 -601 l105 -90 -31 -45 c-18 -24 -36
-44 -40 -44 -12 0 -123 85 -184 142 l-60 56 29 23 c15 12 33 28 40 35 6 7 16
13 23 14 6 0 59 -41 118 -91z m4073 -356 c6 -32 9 -59 8 -60 0 0 -46 -21 -101
-46 -297 -133 -808 -259 -1150 -284 l-90 -6 58 65 58 66 87 12 c326 45 752
160 1002 270 116 52 116 52 128 -17z m-2822 -63 c238 -82 574 -161 807 -192
l92 -12 45 -50 c77 -84 77 -84 17 -79 -267 20 -624 88 -857 165 -89 29 -241
86 -248 93 -2 2 50 104 54 105 0 0 40 -14 90 -30z m-273 -166 c37 -19 67 -40
67 -45 0 -14 -39 -89 -47 -89 -3 0 -41 19 -84 42 l-78 41 30 44 c17 23 33 43
37 43 4 0 38 -16 75 -36z m-893 -93 c0 -12 -20 -25 -27 -18 -7 7 6 27 18 27 5
0 9 -4 9 -9z m1259 -45 c143 -43 506 -126 553 -126 43 0 49 -12 42 -74 l-7
-57 -41 6 c-277 44 -548 112 -728 183 l-27 11 22 51 c11 27 25 50 30 50 5 0
75 -20 156 -44z m2465 -18 c11 -26 17 -50 14 -53 -11 -11 -191 -69 -313 -100
-153 -39 -452 -91 -583 -101 l-92 -7 0 62 c0 60 0 61 28 61 46 0 299 40 447
70 138 28 422 103 433 115 18 18 48 -3 66 -47z"/>
<path d="M5048 8876 c-175 -48 -258 -233 -177 -394 32 -65 66 -99 133 -135 32
-17 58 -22 121 -22 70 0 87 4 134 30 65 36 105 83 132 155 26 67 22 156 -9
215 -61 118 -210 186 -334 151z"/>
<path d="M8616 5418 c-35 -49 -6 -110 51 -110 56 0 82 85 36 120 -27 19 -70
15 -87 -10z"/>
</g>
</svg>
